<?xml version="1.0" encoding="utf-8"?>
<!-- Generator: Adobe Illustrator 22.1.0, SVG Export Plug-In . SVG Version: 6.00 Build 0)  -->
<svg version="1.1" id="レイヤー_1" xmlns="http://www.w3.org/2000/svg" xmlns:xlink="http://www.w3.org/1999/xlink" x="0px"
	 y="0px" viewBox="0 0 1956.7 967.4" style="enable-background:new 0 0 1956.7 967.4;" xml:space="preserve">
<style type="text/css">
	.st0{fill:#FFFFFF;}
	.st1{fill:#F1E534;stroke:#D47AAE;stroke-width:12.2178;stroke-miterlimit:10;}
	.st2{fill:url(#SVGID_1_);}
	.st3{fill:url(#SVGID_2_);}
	.st4{fill:url(#SVGID_3_);}
	.st5{fill:url(#SVGID_4_);}
	.st6{fill:url(#SVGID_5_);}
	.st7{fill:url(#SVGID_6_);}
	.st8{fill:url(#SVGID_7_);}
	.st9{fill:url(#SVGID_8_);}
	.st10{fill:url(#SVGID_9_);}
	.st11{fill:url(#SVGID_10_);}
	.st12{fill:url(#SVGID_11_);}
	.st13{fill:url(#SVGID_12_);}
	.st14{fill:url(#SVGID_13_);}
	.st15{fill:url(#SVGID_14_);}
	.st16{fill:url(#SVGID_15_);}
	.st17{fill:url(#SVGID_16_);}
	.st18{fill:url(#SVGID_17_);}
	.st19{fill:url(#SVGID_18_);}
</style>
<g>
	<g>
		<path class="st0" d="M1229.7,872c-13.5,0-25.8-2-36.8-5.9c-11.3-4-21-9.8-28.9-17.3c-7.8-7.5-14-16.5-18.3-26.8
			c-4.3-10.3-6.4-21.6-6.5-33.5l-0.1-73.5c0-12,2.1-23.3,6.3-33.4c4.3-10.2,10.4-19.2,18.2-26.7c7.8-7.5,17.4-13.4,28.7-17.6
			c11.1-4.1,23.5-6.2,37.1-6.2h0.3c24.6,0,44.7,6.5,59.8,19.2c15,12.8,24.5,29.8,28.3,50.7l0.2,1l0,1c0,7.4-2.1,13.5-6.2,17.9
			c-3,3.2-8.5,7.1-17.8,7.1l-14.7,0c-5,0-9.9-1.7-14-4.8c-4.3-3.2-7.3-7.5-8.5-12.5l-0.1-0.4c-1.5-7.3-4.5-12.4-9.1-15.3
			c-5.4-3.5-11.3-5.2-18-5.2c-8.2,0-15.2,2.2-21.4,6.8c-3.2,2.4-7.5,6.8-7.5,17.9l0.1,74c0,4.2,0.8,7.8,2.3,11
			c1.6,3.4,3.7,6.1,6.2,8.3c2.5,2.3,5.5,4,9.1,5.2c3.8,1.3,7.5,2,11.3,2c8.2,0,15-2.3,20.9-7.1c3.1-2.5,7.1-6.9,7.6-16.9l-15.4,0
			c-6.2,0-11.7-2-15.9-5.8c-4.5-4.1-6.9-9.6-6.9-16l0-14.8c0-6.2,2.3-11.7,6.6-15.9c4.2-4.1,9.8-6.3,16.1-6.3l46-0.1
			c8.3,0,15.8,3.1,21.7,9c6.1,5.9,9.3,13.2,9.3,21.1l0.1,26.1c0,11.9-2,23.1-6.1,33.3c-4.1,10.4-10.2,19.5-18,27
			c-7.8,7.5-17.4,13.3-28.5,17.4c-10.9,4-23.4,6-37.2,6H1229.7z"/>
	</g>
	<g>
		<path class="st0" d="M1378.3,869.8c-6.4,0-12.2-2.1-16.5-6.1c-4.6-4.3-7.1-10-7.1-16.6l-0.3-130c0-6.4,2.3-12.1,6.8-16.3
			c-4.5-4.2-6.8-9.8-6.8-16.3l0-18.4c0-6.6,2.4-12.3,7.1-16.6c4.3-4,10-6.1,16.5-6.1l14.3,0c6.5,0,12.2,2.1,16.6,6.1
			c4.6,4.2,7.1,10,7.1,16.6l0,18.4c0,6.4-2.3,12.1-6.8,16.3c4.5,4.2,6.8,9.8,6.8,16.3l0.3,130.1c0,6.6-2.4,12.3-7,16.6
			c-4.4,4-10.1,6.1-16.6,6.1L1378.3,869.8z"/>
	</g>
	<g>
		<path class="st0" d="M1477.8,869.6c-8.2,0-13.5-3.3-16.6-6.1c-4.6-4.2-7.1-9.9-7.1-16.5l-0.2-95.6c0-9,1.8-17.4,5.4-24.8
			c3.6-7.4,8.6-13.8,14.9-19c6.1-5,13.2-8.9,21.1-11.7c7.8-2.7,16.1-4,24.7-4h0.1c17.5,0,32.5,5.6,44.6,16.5
			c12.2,11.1,19,26.6,20.3,46.1l0,0.4l0,0.4c0,6.6-2.4,12.3-7,16.5c-4.3,4-10,6.2-16.5,6.2l-14.1,0c-6.4,0-12-2-16.5-5.9
			c-4.7-4.1-7.3-9.6-7.5-16c-0.3-3-1.1-4.3-1.3-4.6c-0.7-0.7-1.2-0.8-2-0.8c-1.8,0-3.3,0.3-4.5,0.8c-0.2,0.7-0.4,2.2-0.4,4.6
			l0.2,90.7c0,6.6-2.4,12.3-7,16.6c-4.3,4-10,6.1-16.5,6.1L1477.8,869.6L1477.8,869.6z"/>
	</g>
	<g>
		<path class="st0" d="M1629.7,869.3c-6.5,0-12.2-2.1-16.5-6.1c-4.6-4.2-7.1-9.9-7.1-16.5l-0.4-191.1c0-6.6,2.4-12.3,7-16.6
			c3-2.8,8.3-6.1,16.5-6.1l14.3,0c6.5,0,12.2,2.1,16.5,6.1c4.7,4.3,7.1,10,7.1,16.6l0.4,191.1c0,6.6-2.4,12.3-7.1,16.6
			c-4.3,4-10,6.1-16.5,6.1L1629.7,869.3z"/>
	</g>
	<g>
		<path class="st0" d="M1771.1,870.9c-8.2,0-16.2-0.9-23.8-2.7c-8-1.9-15.5-5-22.1-9.1c-6.9-4.3-12.7-9.9-17.4-16.5
			c-4.9-6.8-8-14.9-9.4-24l-0.1-0.9l0-0.9c0-6.4,2.4-12,7-16.2c4.3-4,10-6.1,16.5-6.1l2.4,0c-7.1-4.2-13.2-9.4-18-15.5
			c-5.9-7.5-8.9-16.5-8.9-26.9c0-20.2,7.8-36.3,22.6-46.5c13.6-9.4,30.5-14.1,50.2-14.1h0.2c17.7,0,33.1,4.2,45.8,12.5
			c13.8,9,22.1,22.6,24.8,40.5l0.1,0.9l0,0.9c0,6.3-2.4,11.9-7,16.2c-4.4,4-10.1,6.2-16.6,6.2l-1.4,0c0.2,0.1,0.3,0.2,0.5,0.3
			c7.9,4.2,14.6,9.7,19.8,16.1c5.9,7.4,8.9,16.4,9,26.8c0,18.6-7.4,34-21.6,44.4c-13.3,9.7-30.9,14.7-52.4,14.7H1771.1z
			 M1785.9,816.9 M1759.6,810.3c0.6,1.3,1.3,1.7,2.2,2c3,1.1,6,1.6,9.3,1.6c1.6,0,3.5-0.2,5.6-0.4c-2.1-0.7-4.4-1.4-6.9-2.1
			c-3.7-1.1-7.5-2.2-11.2-3.3C1759,808.8,1759.3,809.5,1759.6,810.3z M1763.3,750.4c2.7,1,5.8,2,9.3,3c2.8,0.8,5.6,1.6,8.5,2.4
			c-0.6-1.1-1.2-2.3-1.6-3.5c-0.4-0.9-0.6-1-0.8-1c-2.4-0.8-5.3-1.2-8.5-1.2c-1.7,0-3.8,0.1-6.2,0.2
			C1763.8,750.4,1763.5,750.4,1763.3,750.4z"/>
	</g>
</g>
<g>
	<g>
		<path class="st0" d="M1212.6,964.9c-4.7,0-9.3-1.2-13.3-3.5c-4,2.3-8.6,3.5-13.4,3.5c-15.2,0-27.1-11.9-27.1-27.2v-15.5
			c0-7.5,6.1-13.6,13.5-13.6c6.9,0,12.5,5.1,13.5,11.7c0.9-6.6,6.6-11.7,13.4-11.7c6.8,0,12.4,5,13.4,11.5c1-6.5,6.7-11.5,13.4-11.5
			c7.5,0,13.6,6.1,13.6,13.6v15.5C1239.7,953,1227.8,964.9,1212.6,964.9z"/>
	</g>
	<g>
		<path class="st0" d="M1254.8,964.9c-7.5,0-13.6-6.1-13.6-13.6v-28.4c0-2.3,0.6-4.4,1.5-6.3c-1.6-2.4-2.6-5.2-2.6-8.3
			c0-8.1,6.6-14.7,14.7-14.7c8.1,0,14.6,6.6,14.6,14.7c0,3.1-0.9,5.9-2.6,8.3c1,1.9,1.5,4,1.5,6.3v28.4
			C1268.4,958.8,1262.3,964.9,1254.8,964.9z"/>
	</g>
	<g>
		<path class="st0" d="M1294.4,964.2c-10.7,0-19.1-8.3-19.1-18.9v-11.1c-4.2-2.2-7-6.6-7-11.7c0-5.1,2.9-9.6,7.2-11.8
			c1.1-6.4,6.7-11.4,13.4-11.4c6.3,0,11.7,4.4,13.1,10.3c5.8,1.4,10.1,6.6,10.1,12.9c0,6.1-4.1,11.2-9.7,12.7v3.2
			c5.1,1.8,8.8,6.7,8.8,12.5c0,7.3-5.9,13.2-13.2,13.2H1294.4z"/>
	</g>
	<g>
		<path class="st0" d="M1354,964.9c-7.5,0-13.6-6.1-13.6-13.6v-14.6c0-1-0.3-1.6-0.4-1.7c0,0,0,0,0,0c0,0-0.1,0-0.2,0
			c-0.9,0-1.4,0.1-1.4,1.4v15.2c0,7.3-6.1,13.3-13.6,13.3c-7.5,0-13.6-6-13.6-13.3v-47.2c0-7.5,6.1-13.6,13.6-13.6
			c7.5,0,13.6,6.1,13.6,13.6v4.3c0.7-0.1,1.4-0.1,2.1-0.1c15.7,0,27.1,11.8,27.1,28.1v14.6C1367.6,958.8,1361.5,964.9,1354,964.9z"
			/>
	</g>
	<g>
		<path class="st0" d="M1410.7,964.2c-7.5,0-13.5-6.1-13.5-13.5v-42.6c0-7.5,6.1-13.6,13.5-13.6h18.3c14.4,0,24.9,9.8,24.9,23.3
			c0,3.6-0.6,6.5-1.6,8.8c2.2,3.6,3.4,7.8,3.4,12.5c0,14.3-11.7,25.1-27.1,25.1H1410.7z"/>
	</g>
	<g>
		<path class="st0" d="M1474.1,964.9c-7.5,0-13.7-6.1-13.7-13.7v-43.8c0-7.5,6.1-13.7,13.7-13.7c7.5,0,13.7,6.1,13.7,13.7v43.8
			C1487.7,958.8,1481.6,964.9,1474.1,964.9z"/>
	</g>
	<g>
		<path class="st0" d="M1527.2,964.9c-19.5,0-35.4-16-35.4-35.6c0-19.6,15.9-35.6,35.4-35.6c9.3,0,18.5,3.6,24,9.5
			c2.4,2.5,3.8,6,3.8,9.5c0,2.7-0.9,5.2-2.3,7.3c2.9,2.5,4.7,6.2,4.7,10.2v13.7c0,3.2-1.2,6.3-3.2,8.8l-0.1,0.1
			C1547.5,960.5,1537.7,964.9,1527.2,964.9z"/>
	</g>
	<g>
		<path class="st0" d="M1600.4,964.2c-7.5,0-13.7-6.1-13.7-13.7v-43.1c0-7.5,6.1-13.7,13.7-13.7s13.7,6.1,13.7,13.7v30.1h11.7
			c7.5,0,13.7,6,13.7,13.3c0,7.5-6,13.3-13.7,13.3H1600.4z"/>
	</g>
	<g>
		<path class="st0" d="M1668.4,964.9c-19.6,0-35.6-15.9-35.6-35.5c0-19.7,16-35.7,35.6-35.7c19.6,0,35.6,16,35.6,35.7
			C1704,949,1688,964.9,1668.4,964.9z M1668.4,920.3c-4.6,0-8.2,4-8.2,9c0,5,3.6,8.9,8.2,8.9c4.6,0,8.2-3.9,8.2-8.9
			C1676.6,924.3,1673,920.3,1668.4,920.3z"/>
	</g>
	<g>
		<path class="st0" d="M1730.1,964.2c-5.9,0-11.3-4-13.1-9.7l-14.4-41.5c-0.5-1.4-1.1-3.7-1.1-5.6c0-7.5,6.1-13.7,13.7-13.7
			c6,0,11.1,3.8,13.1,9.6l6.2,17.5l6.1-17.4c2-5.8,7.3-9.7,13.2-9.7c7.5,0,13.7,6.2,13.7,13.8c0,2.1-0.6,4.2-1.1,5.6l-14.3,41.4
			c-2,5.9-7.1,9.7-13,9.7H1730.1z"/>
	</g>
	<g>
		<path class="st0" d="M1782.2,964.2c-7.5,0-13.7-6.1-13.7-13.7V908c0-7.5,6.1-13.5,13.7-13.5h29.3c7.7,0,13.7,5.9,13.7,13.4
			c0,5.2-2.9,9.7-7.3,11.9c2,2.3,3.3,5.4,3.3,8.7c0,4-1.7,7.6-4.5,10c5.1,1.9,8.6,6.7,8.6,12.3c0,7.5-6,13.4-13.7,13.4H1782.2z"/>
	</g>
</g>
<path class="st1" d="M1937,630.4c-34.1,12.4-43.1,25.8-50.2,81.9c-0.4,3.2-5,3.2-5.4,0c-7.1-56.1-16-69.5-50.2-81.9
	c-2.4-0.9-2.4-4.3,0-5.1c34.1-12.4,43.1-25.8,50.2-81.9c0.4-3.2,5-3.2,5.4,0c7,56.1,16,69.5,50.2,81.9
	C1939.4,626.1,1939.4,629.5,1937,630.4z"/>
<g>
	<g>
		<g>
			
				<linearGradient id="SVGID_1_" gradientUnits="userSpaceOnUse" x1="1137.8594" y1="56.2158" x2="844.6327" y2="1058.0737" gradientTransform="matrix(1 0 0 1 -1.4173 0)">
				<stop  offset="0" style="stop-color:#3093B5"/>
				<stop  offset="1" style="stop-color:#D47AAE"/>
			</linearGradient>
			<path class="st2" d="M1270.1,788.9c0-3-1-5.4-3.1-7.1c-2-1.7-4.7-2.6-7.9-2.6l-16.3,0c-3.3,0-5.9-0.9-7.9-2.8
				c-2-1.8-3.1-4.3-3.1-7.2l0-14.8c0-3,1-5.4,3-7.4c2-2,4.7-3,7.9-3l46-0.1c5.2,0,9.6,1.8,13.5,5.6c3.8,3.7,5.7,8,5.7,12.7l0.1,26.1
				c0,10.5-1.7,20.1-5.2,29c-3.5,8.8-8.6,16.4-15.2,22.8c-6.6,6.4-14.8,11.3-24.4,14.8c-9.6,3.5-20.7,5.3-33.2,5.3
				c-12.2,0-23.2-1.7-33-5.2c-9.8-3.5-18-8.4-24.7-14.8c-6.7-6.4-11.8-14-15.5-22.8c-3.7-8.9-5.5-18.5-5.6-29l-0.1-73.5
				c0-10.5,1.8-20.1,5.4-28.9c3.7-8.7,8.8-16.3,15.4-22.7c6.6-6.4,14.8-11.4,24.6-15c9.8-3.6,20.8-5.5,33-5.5
				c22,0,39.4,5.4,52.4,16.4c12.9,11,21,25.6,24.3,43.8c0,8.7-4,13.1-12.2,13.1l-14.7,0c-2.4,0-4.8-0.8-6.9-2.4
				c-2.2-1.6-3.5-3.6-4.1-5.8c-2.2-10.5-7-18.1-14.3-22.8c-7.3-4.7-15.5-7.1-24.4-7.1c-10.6,0-20,3-28.3,9.1
				c-8.3,6-12.4,15.2-12.4,27.5l0.1,74c0,6,1.2,11.4,3.5,16.1c2.3,4.8,5.3,8.8,9,12c3.7,3.3,8,5.8,13,7.5c5,1.7,10.1,2.6,15.3,2.6
				c10.9,0,20.3-3.3,28.3-9.8C1266.1,810.5,1270.1,801.1,1270.1,788.9z"/>
			
				<linearGradient id="SVGID_2_" gradientUnits="userSpaceOnUse" x1="1137.8594" y1="56.2158" x2="844.6327" y2="1058.0737" gradientTransform="matrix(1 0 0 1 -1.4173 0)">
				<stop  offset="0" style="stop-color:#3093B5"/>
				<stop  offset="1" style="stop-color:#D47AAE"/>
			</linearGradient>
			<path class="st3" d="M1404.1,684.4c0,3.2-1.1,5.9-3.2,7.9c-2.2,2-5,3-8.5,3l-14.3,0c-3.5,0-6.4-1-8.6-3c-2.2-2-3.3-4.6-3.3-7.9
				l0-18.4c0-3.2,1.1-5.9,3.2-7.9c2.2-2,5-3,8.5-3l14.3,0c3.5,0,6.4,1,8.6,3c2.2,2,3.3,4.6,3.3,7.9L1404.1,684.4z M1404.4,847.1
				c0,3.2-1.1,5.9-3.2,7.9c-2.2,2-5,3-8.5,3l-14.3,0c-3.5,0-6.4-1-8.6-3c-2.2-2-3.3-4.6-3.3-7.9l-0.3-130c0-3.2,1.1-5.9,3.2-7.9
				c2.2-2,5-3,8.5-3l14.3,0c3.5,0,6.4,1,8.6,3c2.2,2,3.3,4.6,3.3,7.9L1404.4,847.1z"/>
			
				<linearGradient id="SVGID_3_" gradientUnits="userSpaceOnUse" x1="1137.8594" y1="56.2158" x2="844.6327" y2="1058.0737" gradientTransform="matrix(1 0 0 1 -1.4173 0)">
				<stop  offset="0" style="stop-color:#3093B5"/>
				<stop  offset="1" style="stop-color:#D47AAE"/>
			</linearGradient>
			<path class="st4" d="M1573.3,755.3c0,3.2-1.1,5.9-3.2,7.9c-2.1,2-5,3-8.5,3l-14.1,0c-3.5,0-6.4-1-8.7-3c-2.3-2-3.4-4.6-3.4-7.9
				c-0.6-5.8-2.3-9.9-5.1-12.6c-2.9-2.6-6.2-3.9-10-3.9c-4.6,0-8.5,1.1-11.8,3.2c-3.3,2.1-4.9,6.8-4.9,14.1l0.2,90.7
				c0,3.2-1.1,5.9-3.2,7.9c-2.2,2-5,3-8.5,3l-14.3,0c-3.5,0-6.4-1-8.6-3c-2.2-2-3.3-4.6-3.3-7.9l-0.2-95.6c0-7.2,1.4-13.8,4.2-19.7
				c2.8-5.9,6.7-10.9,11.7-15c5-4.1,10.8-7.3,17.4-9.6c6.6-2.3,13.6-3.4,20.9-3.4c14.6,0,26.8,4.5,36.7,13.4
				C1566.7,726.1,1572.2,738.8,1573.3,755.3z"/>
			
				<linearGradient id="SVGID_4_" gradientUnits="userSpaceOnUse" x1="1137.8594" y1="56.2158" x2="844.6327" y2="1058.0737" gradientTransform="matrix(1 0 0 1 -1.4173 0)">
				<stop  offset="0" style="stop-color:#3093B5"/>
				<stop  offset="1" style="stop-color:#D47AAE"/>
			</linearGradient>
			<path class="st5" d="M1655.8,846.6c0,3.2-1.1,5.9-3.2,7.9c-2.2,2-5,3-8.5,3l-14.3,0c-3.5,0-6.4-1-8.6-3c-2.2-2-3.3-4.6-3.3-7.9
				l-0.4-191.1c0-3.2,1.1-5.9,3.2-7.9c2.2-2,5-3,8.5-3l14.3,0c3.5,0,6.4,1,8.6,3c2.2,2,3.3,4.6,3.3,7.9L1655.8,846.6z"/>
			
				<linearGradient id="SVGID_5_" gradientUnits="userSpaceOnUse" x1="1137.8594" y1="56.2158" x2="844.6327" y2="1058.0737" gradientTransform="matrix(1 0 0 1 -1.4173 0)">
				<stop  offset="0" style="stop-color:#3093B5"/>
				<stop  offset="1" style="stop-color:#D47AAE"/>
			</linearGradient>
			<path class="st6" d="M1710,816.8c0-3,1.1-5.5,3.2-7.5c2.2-2,5-3,8.6-3l15.1,0c3,0,5.5,0.9,7.5,2.6c2,1.7,3.5,3.7,4.3,6
				c1.9,4.3,5,7.1,9.2,8.6c4.2,1.5,8.6,2.2,13.2,2.2c2.2,0,4.7-0.2,7.5-0.6c2.9-0.4,5.5-1.1,7.9-2.1c2.4-1,4.5-2.4,6.3-4.3
				c1.8-1.9,2.6-4.2,2.6-6.9c0-2.5-2.1-4.6-6.3-6.4c-4.2-1.7-9.6-3.5-16.1-5.4c-6.5-1.9-13.4-3.9-20.8-6.1
				c-7.3-2.2-14.3-5.2-20.8-8.8c-6.5-3.6-11.9-8.1-16.1-13.5c-4.2-5.4-6.3-11.9-6.3-19.7c0-16.5,5.8-28.7,17.4-36.8
				c11.7-8,26.2-12,43.6-12.1c15.5,0,28.6,3.5,39.5,10.6c10.9,7.1,17.4,17.9,19.6,32.4c0,3-1.1,5.5-3.2,7.5c-2.2,2-5,3-8.5,3
				l-15.1,0c-3,0-5.5-0.9-7.5-2.6c-2-1.7-3.5-3.7-4.3-6c-1.6-4-4.3-6.6-8-7.9c-3.7-1.2-7.8-1.9-12.4-1.8c-1.9,0-4.1,0.1-6.7,0.2
				c-2.6,0.1-5.1,0.6-7.5,1.5c-2.4,0.9-4.5,2.2-6.3,3.9c-1.8,1.8-2.6,4.3-2.6,7.5c0,3,2.1,5.5,6.3,7.5c4.2,2,9.6,3.9,16.1,5.8
				c6.5,1.9,13.5,3.8,20.8,6c7.3,2.1,14.3,4.9,20.8,8.4c6.5,3.5,11.9,7.9,16.1,13.1c4.2,5.2,6.3,11.7,6.3,19.5
				c0,15-5.6,26.6-16.8,34.9c-11.3,8.3-26.4,12.4-45.4,12.4c-7.3,0-14.4-0.8-21.2-2.4c-6.8-1.6-13-4.2-18.5-7.7
				c-5.6-3.5-10.3-7.9-14.1-13.3C1713.6,830.4,1711.1,824.1,1710,816.8z"/>
		</g>
		<g>
			
				<linearGradient id="SVGID_6_" gradientUnits="userSpaceOnUse" x1="1137.8594" y1="56.2158" x2="844.6327" y2="1058.0737" gradientTransform="matrix(1 0 0 1 -1.4173 0)">
				<stop  offset="0" style="stop-color:#3093B5"/>
				<stop  offset="1" style="stop-color:#D47AAE"/>
			</linearGradient>
			<path class="st7" d="M1167.6,922.2c0-2.5,2.1-4.8,4.7-4.8s4.8,2.2,4.8,4.8v16.3c0,5.4,3.7,8.8,8.8,8.8c4.8,0,8.7-3.3,8.7-8.8
				v-16.3c0-2.5,2.1-4.8,4.7-4.8c2.6,0,4.8,2.2,4.8,4.8v16.3c0,5.5,3.9,8.8,8.6,8.8c4.9,0,8.8-3.3,8.8-8.8v-16.3
				c0-2.5,2.2-4.8,4.8-4.8c2.6,0,4.8,2.2,4.8,4.8v15.5c0,10.9-8.5,18.3-18.3,18.3c-5.1,0-10-2.2-13.4-5.9c-3.4,3.8-8.1,5.9-13.4,5.9
				c-9.8,0-18.2-7.4-18.2-18.3V922.2z"/>
			
				<linearGradient id="SVGID_7_" gradientUnits="userSpaceOnUse" x1="1137.8594" y1="56.2158" x2="844.6327" y2="1058.0737" gradientTransform="matrix(1 0 0 1 -1.4173 0)">
				<stop  offset="0" style="stop-color:#3093B5"/>
				<stop  offset="1" style="stop-color:#D47AAE"/>
			</linearGradient>
			<path class="st8" d="M1254.8,902.6c3.2,0,5.8,2.6,5.8,5.8c0,3.2-2.6,5.8-5.8,5.8c-3.2,0-5.8-2.6-5.8-5.8
				C1249,905.2,1251.6,902.6,1254.8,902.6z M1259.6,951.3c0,2.5-2.2,4.8-4.8,4.8s-4.8-2.2-4.8-4.8v-28.4c0-2.5,2.2-4.8,4.8-4.8
				s4.8,2.2,4.8,4.8V951.3z"/>
			
				<linearGradient id="SVGID_8_" gradientUnits="userSpaceOnUse" x1="1137.8594" y1="56.2158" x2="844.6327" y2="1058.0737" gradientTransform="matrix(1 0 0 1 -1.4173 0)">
				<stop  offset="0" style="stop-color:#3093B5"/>
				<stop  offset="1" style="stop-color:#D47AAE"/>
			</linearGradient>
			<path class="st9" d="M1298,955.3h-3.6c-5.8,0-10.2-4.2-10.2-10v-18.3h-2.6c-2.4,0-4.4-1.9-4.4-4.4c0-2.3,1.9-4.4,4.4-4.4h2.6V913
				c0-2.6,2.2-4.7,4.8-4.7c2.5,0,4.7,2.1,4.7,4.7v5.2h5.3c2.4,0,4.4,1.9,4.4,4.4c0,2.4-2,4.4-4.4,4.4h-5.3v18.2
				c0,0.7,0.7,1.4,1.4,1.4h3c2.5,0,4.4,1.9,4.4,4.4C1302.4,953.4,1300.4,955.3,1298,955.3z"/>
			
				<linearGradient id="SVGID_9_" gradientUnits="userSpaceOnUse" x1="1137.8594" y1="56.2158" x2="844.6327" y2="1058.0737" gradientTransform="matrix(1 0 0 1 -1.4173 0)">
				<stop  offset="0" style="stop-color:#3093B5"/>
				<stop  offset="1" style="stop-color:#D47AAE"/>
			</linearGradient>
			<path class="st10" d="M1358.7,936.7v14.6c0,2.5-2.2,4.8-4.8,4.8c-2.6,0-4.8-2.2-4.8-4.8v-14.6c0-6-3.8-10.5-9.4-10.5
				c-6.3,0-10.2,4.5-10.2,10.2v15.2c0,2.5-2.2,4.5-4.8,4.5c-2.6,0-4.8-2-4.8-4.5v-47.2c0-2.5,2.2-4.8,4.8-4.8c2.6,0,4.8,2.2,4.8,4.8
				v17.3c1.8-1.6,5.5-4.2,11-4.2C1351.5,917.4,1358.7,925.4,1358.7,936.7z"/>
			
				<linearGradient id="SVGID_10_" gradientUnits="userSpaceOnUse" x1="1137.8594" y1="56.2158" x2="844.6327" y2="1058.0737" gradientTransform="matrix(1 0 0 1 -1.4173 0)">
				<stop  offset="0" style="stop-color:#3093B5"/>
				<stop  offset="1" style="stop-color:#D47AAE"/>
			</linearGradient>
			<path class="st11" d="M1429,903.3c10.5,0,16,6.6,16,14.4c0,4.6-1.5,7.2-3.8,9.7c3.5,2.7,5.6,6.3,5.6,11.6
				c0,9.1-7.3,16.3-18.3,16.3h-17.8c-2.5,0-4.7-2.2-4.7-4.7v-42.5c0-2.6,2.1-4.8,4.7-4.8H1429z M1415.4,912.2V924h13.4
				c4.1,0,6.8-2.2,6.8-5.9c0-3.6-2.7-5.9-6.8-5.9H1415.4z M1415.4,932.9v13.4h13.4c5.3,0,8.5-2.7,8.5-6.9c0-4.4-3.2-6.5-8.5-6.5
				H1415.4z"/>
			
				<linearGradient id="SVGID_11_" gradientUnits="userSpaceOnUse" x1="1137.8594" y1="56.2158" x2="844.6327" y2="1058.0737" gradientTransform="matrix(1 0 0 1 -1.4173 0)">
				<stop  offset="0" style="stop-color:#3093B5"/>
				<stop  offset="1" style="stop-color:#D47AAE"/>
			</linearGradient>
			<path class="st12" d="M1474.1,902.6c2.7,0,4.8,2.2,4.8,4.8v43.8c0,2.6-2.2,4.8-4.8,4.8c-2.7,0-4.8-2.2-4.8-4.8v-43.8
				C1469.2,904.8,1471.4,902.6,1474.1,902.6z"/>
			
				<linearGradient id="SVGID_12_" gradientUnits="userSpaceOnUse" x1="1137.8594" y1="56.2158" x2="844.6327" y2="1058.0737" gradientTransform="matrix(1 0 0 1 -1.4173 0)">
				<stop  offset="0" style="stop-color:#3093B5"/>
				<stop  offset="1" style="stop-color:#D47AAE"/>
			</linearGradient>
			<path class="st13" d="M1527.2,902.6c6.5,0,13.6,2.5,17.6,6.8c0.9,0.9,1.3,2.3,1.3,3.4c0,1.9-1.8,4.2-4.2,4.2
				c-1.9,0-2.9-0.8-4.2-1.9c-2.4-1.9-5.7-3.6-10.5-3.6c-9.4,0-16.9,8.1-16.9,17.9c0,9.9,7.6,17.9,16.9,17.9c4.4,0,8.5-1.3,11.7-4.2
				v-8.5h-11.7c-2.7,0-4.8-1.9-4.8-4.6c0-2.6,2.2-4.4,4.8-4.4h16.5c2.6,0,4.8,2.2,4.8,4.8v13.7c0,1.1-0.4,2.2-1.2,3.1
				c-5.1,5.9-12.4,9-20.1,9c-14.6,0-26.6-12.1-26.6-26.7C1500.7,914.7,1512.6,902.6,1527.2,902.6z"/>
			
				<linearGradient id="SVGID_13_" gradientUnits="userSpaceOnUse" x1="1137.8594" y1="56.2158" x2="844.6327" y2="1058.0737" gradientTransform="matrix(1 0 0 1 -1.4173 0)">
				<stop  offset="0" style="stop-color:#3093B5"/>
				<stop  offset="1" style="stop-color:#D47AAE"/>
			</linearGradient>
			<path class="st14" d="M1600.4,902.6c2.7,0,4.8,2.2,4.8,4.8v39h20.6c2.6,0,4.8,1.9,4.8,4.5c0,2.7-2.2,4.5-4.8,4.5h-25.4
				c-2.6,0-4.8-2.1-4.8-4.8v-43.1C1595.6,904.7,1597.8,902.6,1600.4,902.6z"/>
			
				<linearGradient id="SVGID_14_" gradientUnits="userSpaceOnUse" x1="1137.8594" y1="56.2158" x2="844.6327" y2="1058.0737" gradientTransform="matrix(1 0 0 1 -1.4173 0)">
				<stop  offset="0" style="stop-color:#3093B5"/>
				<stop  offset="1" style="stop-color:#D47AAE"/>
			</linearGradient>
			<path class="st15" d="M1668.4,902.6c14.8,0,26.7,12,26.7,26.8c0,14.7-12,26.7-26.7,26.7c-14.8,0-26.7-12-26.7-26.7
				C1641.6,914.6,1653.6,902.6,1668.4,902.6z M1668.4,947.1c9.7,0,17.1-7.9,17.1-17.7c0-9.9-7.4-17.9-17.1-17.9
				c-9.7,0-17.1,8-17.1,17.9C1651.3,939.2,1658.7,947.1,1668.4,947.1z"/>
			
				<linearGradient id="SVGID_15_" gradientUnits="userSpaceOnUse" x1="1137.8594" y1="56.2158" x2="844.6327" y2="1058.0737" gradientTransform="matrix(1 0 0 1 -1.4173 0)">
				<stop  offset="0" style="stop-color:#3093B5"/>
				<stop  offset="1" style="stop-color:#D47AAE"/>
			</linearGradient>
			<path class="st16" d="M1734.1,946.3h0.9l14-40c0.7-2.2,2.6-3.8,4.8-3.8c2.7,0,4.8,2.4,4.8,4.9c0,0.4-0.1,1.4-0.6,2.7l-14.3,41.4
				c-0.7,2.2-2.4,3.7-4.7,3.7h-8.8c-2.2,0-4.1-1.6-4.8-3.6l-14.4-41.6c-0.4-1-0.6-2.2-0.6-2.7c0-2.6,2-4.8,4.8-4.8
				c2.2,0,4,1.5,4.8,3.6L1734.1,946.3z"/>
			
				<linearGradient id="SVGID_16_" gradientUnits="userSpaceOnUse" x1="1137.8594" y1="56.2158" x2="844.6327" y2="1058.0737" gradientTransform="matrix(1 0 0 1 -1.4173 0)">
				<stop  offset="0" style="stop-color:#3093B5"/>
				<stop  offset="1" style="stop-color:#D47AAE"/>
			</linearGradient>
			<path class="st17" d="M1811.5,946.4c2.7,0,4.8,1.8,4.8,4.4c0,2.7-2.2,4.5-4.8,4.5h-29.3c-2.7,0-4.8-2.2-4.8-4.8V908
				c0-2.6,2.2-4.7,4.8-4.7h29.3c2.7,0,4.8,1.9,4.8,4.5c0,2.7-2.2,4.5-4.8,4.5H1787V924h20.4c2.7,0,4.8,1.9,4.8,4.5
				c0,2.7-2.2,4.5-4.8,4.5H1787v13.4H1811.5z"/>
		</g>
		<g>
			
				<linearGradient id="SVGID_17_" gradientUnits="userSpaceOnUse" x1="1137.8594" y1="56.2158" x2="844.6327" y2="1058.0737" gradientTransform="matrix(1 0 0 1 -1.4173 0)">
				<stop  offset="0" style="stop-color:#3093B5"/>
				<stop  offset="1" style="stop-color:#D47AAE"/>
			</linearGradient>
			<path class="st18" d="M1066.9,778.3c-6.1,0-12.1,1.3-17.6,4c-49,23.2-99.3,34.5-153.8,34.5c-117.2,0-236.4-53.6-352.7-111.2
				c18.9-10.6,33.9-30,39-51.6c5.2,12,12.4,23,21.9,29.6c7.4,5.1,15.9,7.7,24.6,7.7c3.2,0,6.4-0.4,9.6-1.1
				c21.7-5.1,28.3-18,37.5-47.2c3.1,6.3,7.2,12.4,12.6,18.2c12.6,13.5,30.3,20.9,49.8,20.9c3.2,0,6.6-0.2,9.9-0.6
				c29.3-3.6,56.7-22.4,71.5-49.1c11-19.9,3.8-45-16-56c-1.9-1.1-3.9-2-6-2.7c5.1-4.4,9.9-9.9,13.8-16.9c8.9-16,9.7-35.3,2.2-52.9
				c-7.9-18.5-23.9-32.6-42.8-37.7c-0.8-0.2-1.7-0.4-2.5-0.6c1.3-3.8,2-7.7,2.1-11.8c0.3-11-3.6-21.5-11.2-29.5
				c-7.8-8.2-18.7-13-30-13c-10.5,0-20.5,4-28.2,11.2c-23.4,22-41.6,45.7-58.7,76.8c-6.3-7.4-15.3-12.5-25.6-13.9
				c-1.8-0.2-3.7-0.4-5.6-0.4c-20.5,0-38,15.3-40.8,35.6c0,0.2-0.1,0.6-0.1,1c-12.9-16-33.3-26.4-53.4-26.4c-9,0-17.6,2-25.6,5.8
				c-28.3,13.7-43.7,39.3-47.5,63.9c-3.8,24.7-7.9,59.6-9.7,80.5c-0.2,2.7-41.1-13.9-65-24.4c10-38.4,16.3-77.1,22.4-114.8
				c1.9-11.9,3.9-24,5.9-36.1c35.7-2.4,68.4-8.4,99.3-18.2l0.5-0.2l1.8-0.7l0.5-0.2c19.2-7.7,33-15.2,46.3-25.1
				c43.8-32.8,64.1-85.2,55.7-143.6l-0.1-0.7l-0.5-2.7l-0.2-0.7c-4.5-17.8-16.3-65.2-62.3-82.4l-0.6-0.2l-2.3-0.7l-0.6-0.2
				c-11.6-3.2-23.2-4.8-34.6-4.8c-41.4,0-117.8,22.3-163.2,171.6l-0.1,0.4c-2.5,8.5-4.8,17.3-7,26.5c-9.9-0.5-20.4-1.3-32-2.3
				l-0.6-0.1l-2.3-0.1h-0.6c-1.5,0-3.5-0.1-5.9-0.3c-3-0.2-6.8-0.4-10.8-0.4c-13.5,0-25.3,2.7-36.1,8.1c-9.8,5-17.1,13.5-20.5,23.9
				s-2.5,21.6,2.4,31.4c7.1,13.9,21.1,22.5,36.7,22.5c5.8,0,46.9-1.8,53.7-1.4c-1.3,7.9-2.6,15.7-3.8,23.4
				c-5.4,33.5-10.6,65.7-18,96.4c-40.1-13.7-76.4-20.4-110.1-20.4c-61.6,0-110.9,22.6-146.6,67.2l-0.2,0.3l-1.1,1.5
				c-21.8,30.5-31,63-27.3,96.5l0.2,1.3c8.5,59.3,48.9,105.1,103,116.6l0.9,0.2c10.8,2.1,21.8,3.1,32.4,3.1
				c54.8,0,105.5-26.6,150.9-79l1.1-1.3c18.4-23.1,33.8-48.4,46.5-76.5c40.3,17.9,81.2,38.4,124.3,60
				c94.9,47.5,193,96.6,294.8,122.2c46.7,11.7,92.2,17.7,135,17.7c67.1,0,128.9-13.9,189-42.3c9.9-4.7,17.5-13,21.2-23.4
				c3.7-10.4,3.1-21.5-1.6-31.5C1097.3,787.6,1082.7,778.3,1066.9,778.3z M415.5,385c21.5-70.7,53-112.8,84.2-112.8
				c3.2,0,8.2,0,12,3.2c3.8,3.2,6.5,10.4,8.9,20.7c2.4,19.6-0.8,46.1-24.7,64c-7.1,5.3-14.5,9.3-26,14c-17.2,5.4-35.3,9.3-54.6,11.8
				C415.3,385.6,415.4,385.3,415.5,385z M231,723.9c-28.8,33-58.7,49.8-88.7,49.8c-5.2,0-10.6-0.5-16-1.5c-20.2-4.5-34.4-22-38.2-47
				c-1.2-12.6,2.5-24.7,11.8-38c19.9-24.4,45.4-35.7,80.2-35.7c23.9,0,52.4,5.6,85.1,16.7C255.6,688.5,244.3,707,231,723.9z"/>
		</g>
		
			<linearGradient id="SVGID_18_" gradientUnits="userSpaceOnUse" x1="1137.8594" y1="56.2158" x2="844.6327" y2="1058.0737" gradientTransform="matrix(1 0 0 1 -1.4173 0)">
			<stop  offset="0" style="stop-color:#3093B5"/>
			<stop  offset="1" style="stop-color:#D47AAE"/>
		</linearGradient>
		<path class="st19" d="M1858.5,391.8c-4.6-1.7-9.3-2.5-14.2-2.5c-3.3,0-6.4,0.4-9.5,1.1c16.4-65,44.7-171.1,45-172.4
			c5.9-21.9-7.2-44.5-29.2-50.4c-3.5-0.9-7-1.4-10.6-1.4c-18.6,0-35,12.6-39.8,30.6l-0.1,0.4c-1.9,7.2-8.2,30.7-15.9,59.9
			c-7.5-10.7-20-17.6-33.7-17.6c-2,0-4.1,0.2-6.1,0.5l-80.4,12.1c0.8-3.1,1.3-5.1,1.5-5.7c2.8-10.6,1.2-21.7-4.4-31.2
			c-5.6-9.5-14.5-16.2-25.2-19c-3.4-0.9-6.9-1.3-10.3-1.3c-18.8,0-35.2,12.7-39.9,30.9c0,0.2-4.2,16.3-10.4,39.7l-37.8,5.7
			c-10.9,1.6-20.5,7.4-27,16.3c-1.7,2.2-3.1,4.6-4.2,7.1c-4.9-11.1-14.4-19.8-27.5-24c-4.5-1.4-9-2.1-13.6-2.1
			c-4.5,0-8.7,0.7-12.5,1.9c-5.4-2.6-11.6-4.2-18.5-4.2c-2.4,0-4.8,0.2-7.2,0.6c-4.2,0.7-3.6-7.9-1.9-14.9
			c1.5-6.1,2.7-12.6,3.7-19.2c10.4-68.3-6.2-134.6-44.4-177.2C1355.6,22.6,1313.5,4,1269.2,4c-24.7,0-48.9,5.5-71.8,16.4
			c-54.4,25.9-102.4,71.8-151,144.6c-18.6,27.8-35.5,57.9-51.7,91.8c-17.5-7-35.2-10.5-52.8-10.5c-19.6,0-38.4,4.4-55.9,13.2
			c-54.8,27.4-84.8,91.9-76.3,164.5c5.7,48.4,21.6,82.4,48.9,103.9c10.2,8.1,21.9,14.2,34.9,18.1c-10.4,40.9-19.7,84.6-25.3,126.5
			c-3,22.5,12.9,43.3,35.3,46.3c1.8,0.2,3.7,0.4,5.5,0.4c20.5,0,38.1-15.4,40.8-35.7c5.2-38.9,15-85.4,28.3-135.2l8.7-0.9
			c21.7-2.2,43.1-5.9,61.5-9.7c-5,23.7-11.5,39.5-11.5,39.6c-4.3,10.1-4.5,21.3-0.4,31.5c4.1,10.2,11.9,18.2,22,22.6
			c5.2,2.2,10.6,3.3,16.2,3.3c16.5,0,31.4-9.8,37.9-25c0.8-1.8,4-9.6,7.8-21.8c11,13,26.6,20.2,44.3,20.2l0.6,0
			c19.4-0.2,35.6-6.4,48.4-18.7c7.9,3.4,15.2,4.4,21.3,4.4c5.3,0,10.6-0.8,15.6-2.4c6.2-2,12.2-5,17.8-9.3
			c6.6,2.5,13.7,3.7,21.2,3.7l0.6,0c19.5-0.2,35.7-6.5,48.6-18.8c7.5,3.3,15.1,5,23,5c4.8,0,9.6-0.7,14.2-1.9
			c8.5-2.3,16.6-6.2,24.4-11.5c8.8,4.7,18.7,7.2,29.3,7.2c16.1,0,30.9-5.3,43.4-15.2c7.4,2.9,15.3,4.3,23.5,4.3
			c3.3,0,6.7-0.2,10-0.7c17.8-2.6,33.9-9.1,48-19.4c8.2,5.1,17.6,7.9,27.9,8.3c0.7,0,1.3,0,2,0c16.8,0,33.2-7.4,47.1-16.7
			c8.2,4.6,17.2,7.1,26.5,7.1l1,0c20.1,0,38.7-6.8,55.6-20.2c8.5,4.7,18.2,7.1,28.6,7.1l0.6,0c16.2-0.1,30.1-4.5,41.7-12.9
			c9.5,5.1,18.5,6.6,25.8,6.6c5.3,0,10.6-0.8,15.6-2.4c31.2-9.8,48.6-46.2,56.2-67.1C1890.8,423.2,1879.8,399.5,1858.5,391.8z
			 M938.3,397.5c-6.4,18.3-14.3,41.9-22.5,69c-2.4-0.9-4.5-2-6.2-3.3c-5.1-4-14.2-15.7-18.1-48.8c-4.3-37.1,8.2-69.8,31.3-81.3
			c5.9-3,12.2-4.4,19-4.4c6.4,0,13.2,1.3,20.2,3.9C952.7,356.6,944.6,379.3,938.3,397.5z M1003.5,461.9c4-12.4,8.2-24.9,12.5-37.3
			c3.6-10.3,7.8-22.2,12.4-34.9c11.9,18.5,19.7,39.4,23.3,62.6C1038.8,455.4,1021.7,459,1003.5,461.9z M1336.8,298
			c-0.1,0.4-9.8,37-20.5,78.4c-10.3,0.1-23.9,3-37.7,13.8c7.2-27.7,12.7-48.4,12.8-48.9c5.8-22-7.3-44.5-29.3-50.4
			c-3.4-0.9-7-1.4-10.6-1.4c-18.7,0-35,12.6-39.8,30.6c-0.1,0.4-9.8,37.1-20.5,78.4c-14.8,0.2-36.2,6.1-55.6,32.7
			c-1.1,1.6-2.2,3.2-3.3,4.9c-8.8-51.6-32-96.6-68.8-132.7l1.3-2.9c15.7-33.7,32-63,49.8-89.8c39.5-59.1,78-97,117.9-116
			c11.7-5.6,24-8.4,36.4-8.4c21.3,0,40.5,8.4,54.1,23.6c22,24.5,30.4,66.9,26.3,111.5C1346.3,250.5,1344.7,269.2,1336.8,298z"/>
	</g>
</g>
<g>
	<g>
		<path class="st0" d="M895.5,869.5c-40.4,0-83.4-5.6-127.8-16.8C669,828,572.4,779.6,479,732.8l-0.1-0.1
			c-51.9-26-100.9-50.5-149.8-71l-0.3-0.1l-3.2-1.4l-0.5,1.2c-13.6,36.6-31.1,68.1-53.3,96.1l-0.3,0.4
			c-39.5,45.6-82.8,68.7-128.6,68.7c-8.8,0-17.9-0.9-26.9-2.6l-0.3-0.1c-41.8-9-73.2-45-79.9-91.9l0-0.4c-2.9-26,4.5-51.6,21.9-76
			L58,655c29.8-37.2,71.3-56.1,123.5-56.1c37.6,0,80.9,9.9,128.9,29.4l1.2,0.5l0.4-1.3c12.5-41.4,19.4-84.2,26.8-129.6
			c2.9-17.9,5.9-36.3,9.3-54.8l0.3-1.4l-1.4,0c-16.2-0.4-33.2-1.4-53.6-3.1c-3,0-5.8-0.2-8.5-0.4c-1.4-0.1-2.7-0.1-3.9-0.1
			c-6.6,0-11.8,1.1-15.7,2.1c-1.9,0.5-3.7,0.7-5.4,0.7c-3.4,0-8.1-1-10.5-5.7c-1.4-2.8-1.7-5.9-0.7-8.9c1-3,3-5.4,5.8-6.8
			c8.7-4.4,17.1-4.9,22.7-4.9c3.2,0,6.1,0.2,9,0.4c2.7,0.2,5.3,0.3,7.7,0.3l1.1,0c21.7,1.9,39.9,2.9,57,3.2l1,0l0.2-1
			c3.7-17.4,7.5-33,11.8-47.7c28.6-93.9,81.6-154.6,135.2-154.6c13.4,0,26.6,3.8,39.3,11.3c21.7,12.8,34.2,38.1,35.2,71.1
			c1.2,41.8-17,85.1-43.4,102.8c-38.5,25.9-91.7,39.8-158.1,41.3l-1,0l-0.2,1c-3.7,19.8-6.9,39.7-10,58.9
			c-7.2,44.7-14.7,90.9-28.4,135.3l-0.3,1l5.1,2.3c49.7,20.9,99,45.6,151.2,71.7c132,66.1,268.4,134.4,406.1,134.4
			c59,0,113.5-12.2,166.5-37.4c1.6-0.7,3.2-1.1,5-1.1c4.5,0,8.6,2.6,10.5,6.6c1.3,2.8,1.5,6,0.4,8.9c-1,2.9-3.2,5.3-6,6.6
			C1015.8,856.6,958.1,869.5,895.5,869.5z M180.1,621.9c-44.2,0-78.1,15.5-103.7,47.4c-14.1,19.8-19.8,39.3-17.6,59.6
			c5.4,37.6,29,65.2,61.6,72.3c7.3,1.4,14.7,2.1,21.9,2.1c39.1,0,76.6-20.3,111.4-60.5c21-26.5,37.4-56.1,50.1-90.6l0.4-1.1
			l-1.1-0.4C254.9,631.3,214.7,621.9,180.1,621.9z M499.7,242.6c-62.5,0-97.3,83.9-112.6,134c-3.6,12.5-6.9,25.7-10.1,40.3l-0.3,1.5
			l1.6-0.1c37.3-1.3,70.5-6.7,101.5-16.5c14.7-5.9,24.4-11.2,33.8-18.2c39.5-29.6,37.8-76.1,35.3-94.7l0-0.1
			c-4.7-18.5-11.4-36.5-29-43.5l-0.1,0l-0.1,0C512.9,243.5,506.2,242.6,499.7,242.6z"/>
	</g>
	<g>
		<path class="st0" d="M508.8,684.8c-8,0-19.7-3.5-25.9-7.9c-8.3-5.8-16.3-13.7-18.1-31.8c-1.8-18.2,4.3-60.2,8.2-78.6
			c3.9-18.5,16.4-37.4,43.5-41.7c13.6-2.2,27.7,5.1,33.9,17.8c5.7,11.5,9.6,29,9.8,41.9l0,1.5l1.5-0.3c5.5-1.3,11.7-2.8,18.9-4.6
			l11.1-2.7c0.8-0.2,1.6-0.3,2.6-0.3c0.2,0,0.4,0,0.6,0l1.3,0l0-1.3c-0.4-25.9,3-51.3,3.2-52.3c0.8-5.7,5.7-10,11.5-10
			c0.5,0,1.1,0,1.6,0.1c6.3,0.9,10.8,6.7,9.9,13.1c-0.1,0.4-5.5,41.2-1.6,69.3c1,7.5,2.6,14.8,4.5,21.8l1.1,4l2.9-9.6
			c7.6-24.8,18-58.8,28.8-80.9c18.6-38,37.4-64.4,62.8-88.3c2.2-2,5-3.2,8-3.2c3.2,0,6.2,1.3,8.5,3.7c2.1,2.3,3.2,5.2,3.2,8.3
			c-0.1,3.1-1.4,6-3.7,8.1c-23.6,22.2-40.3,45.8-57.9,81.6c-10,20.4-20.1,53.4-27.5,77.4c-10.7,34.9-12.1,39.4-20.4,41.3
			c-1,0.2-2,0.3-2.9,0.3c-2.7,0-5.5-0.9-7.9-2.5c-10.1-6.9-18.9-33.9-22.3-57l-0.2-1.3l-11.2,2.8c-10.4,2.6-19.3,4.8-27.2,6.5
			l-0.9,0.2l-0.1,0.9c-1.3,12.5-2.6,20-3.7,26.1l-0.1,0.3c-0.4,2.2-0.8,4.3-1.1,6.5c-2.7,17.8-17.8,35.2-34.2,39.4
			C515.8,684.4,512.3,684.8,508.8,684.8z M491.9,613.5c-1,11-2,21.4-1.1,29.8c0.6,6.2,4.1,12.1,9.4,15.8c2.4,1.7,5.3,2.6,8.6,2.6
			c2,0,3.7-0.3,4.8-0.6c6.5-1.7,15.7-11.1,17.7-20.6c1-4.8,2-12.9,2.8-20.1c0.2-1.6,0.7-6,0.7-6l-1.5,0.1c-2.1,0.1-4.2,0.2-6.2,0.2
			c-7.3,0-14.3-0.9-22.2-2.8c-3.3-0.8-7.1-1.9-10.8-4.1l-1.7-1C492.5,606.6,492,611.9,491.9,613.5z M517.1,548.9
			c-1.3,0-2.6,0.1-3.9,0.4c-8,1.8-16.2,8.8-16.5,18.8c-0.4,13.3,5.2,18,13.6,20.9c4.7,1.6,9.4,2.4,14.8,2.4c3.7,0,7.5-0.4,10.7-0.7
			l1-0.1l0.1-1c0.7-10.6-1.8-22.8-6.7-32.6C527.7,551.9,522.8,548.9,517.1,548.9z"/>
	</g>
	<g>
		<path class="st0" d="M737.8,652.5c-11.4,0-21.2-4-28.3-11.6c-18.1-19.3-15-46.5-10.3-72.8c4-22.2,11.6-41.8,20.9-53.8
			c4.4-5.7,16.2-20.8,33.9-20.8c2.8,0,5.7,0.4,8.6,1.2c10.2,2.7,18.9,10.5,23.3,20.7c3.9,9.1,3.4,18.9-0.9,27
			c-14.3,27.4-62.6,36.6-62.6,36.6c-3.2,17.8-6.8,34.6,3.9,46c2.6,2.8,6.4,4.2,11.3,4.2c1.1,0,2.2-0.1,3.4-0.2
			c12.3-1.5,25.4-10.7,31.8-22.3c2-3.7,5.9-6,10.2-6c2,0,3.9,0.5,5.6,1.5c5.6,3.1,7.6,10.2,4.5,15.8c-10.1,18.3-29.5,31.6-49.3,34.1
			C742,652.4,739.9,652.5,737.8,652.5z M735.1,532.5c-6.7,10.7-9.2,26.2-9.2,26.2s17.5-6.1,27.2-11.8c8.5-5,18.8-20.8,9.1-28.3
			C752.7,511.3,740.7,523.6,735.1,532.5z"/>
	</g>
	<g>
		<g>
			<path class="st0" d="M1447,347.1c-1.9-3.1-6.1-7.8-11.7-12.1c-7.8-6-15.3-15.6-16.1-20.6c-2.3-14.7,8-18,12.6-18.7
				c0.9-0.1,1.7-0.2,2.5-0.2c11,0,14.5,12.7,14.5,12.8l0.9,3.4l1.4-3.2c0-0.1,4.7-10.6,14.2-10.6c1.5,0,3,0.3,4.6,0.8
				c4.4,1.4,14.1,6.2,9.6,20.4c-1.5,4.8-10.4,13.2-19,17.9C1454.2,340.2,1449.3,344.2,1447,347.1z"/>
		</g>
		<g>
			<path class="st0" d="M1164.6,578.3c-9.2,0-16.9-3.5-22.3-10.2c-10.4-13-11.1-36.7-2.1-74.8c7.4-31.3,26.7-65.1,51.9-65.1
				c0.4,0,0.7,0,1.1,0c6.3,0.2,12.4,2.3,17.9,6l1.4,1l0.4-1.7c13-50.7,27.4-105.2,27.5-105.7c1.3-5.1,6-8.6,11.2-8.6
				c1,0,2,0.1,3,0.4c6.2,1.6,9.9,8,8.3,14.2c-0.3,1.2-33.1,125.1-44.3,173.7c-0.5,2.3-1.1,4.6-1.6,6.8l0,0.1l0,0.1
				c-0.1,3.5,1,15,7.2,21.5c2.9,3,6.4,4.6,10.6,4.6c17.3-0.5,24.7-37.5,25-39.1c1-9,2.8-19.2,5.4-30.5c7.4-31.3,26.7-65.1,51.8-65.1
				c0.4,0,0.7,0,1.1,0c6.3,0.2,12.4,2.3,17.9,6l1.4,1l0.4-1.7c13.1-51.3,27.4-105.2,27.5-105.7c1.3-5.1,6-8.6,11.2-8.6
				c1,0,2,0.1,3,0.4c6.2,1.6,9.9,8,8.3,14.2c-0.3,1.2-33.3,125.7-44.3,173.7c-0.9,3.7-1.8,7.6-2.9,11.7l-0.1,0.3l0.1,0.3
				c2.1,9.9,13.7,20.6,20.9,21.4l0.1,0l0.1,0c13-0.4,24.8-12.5,34-35l0.1-0.1l0-0.2c0.4-2.4,21.3-88.3,21.5-88.9
				c1.3-5.1,6-8.7,11.2-8.7c1,0,2,0.1,2.9,0.4c6.2,1.6,9.9,8,8.3,14.2c-0.2,0.6-17.1,65.7-20.5,83.6c-0.6,3.9-0.1,26.7,10,28.6
				l0.1,0h0.1c0.4,0,0.9,0.1,1.4,0.1c13.4,0,21.2-18.8,25.5-34.7c0.2-0.7,0.5-1.5,0.8-2.2l0.1-0.3l0-0.3c-0.3-8.4,0.6-17.3,2.5-26.4
				c9.7-45.5,25.4-70.3,47.7-75.8c2.6-0.6,5.6-1,8.4-1c5.6,0,10.7,1.3,14.2,3.7c11.9,8,13.4,25.8,14.1,33.3c0.1,1.1,0.2,2,0.3,2.6
				c0.5,3.2-0.1,6-1.6,8.3c-1.6,2.3-4,3.7-7.1,4.2c-0.6,0.1-1.2,0.1-1.8,0.1c-5.5,0-9.9-3.9-10.8-9.6c-0.3-1.8-0.4-3.6-0.6-5.4
				c-0.6-6.4-1.1-13-8.5-13.7c-0.2,0-0.4,0-0.7,0c-10.5,0-23.7,25-30.8,58.2c-3.1,14.4-0.5,31.2,6.2,40.8c2.9,4.1,6.3,6.5,9.9,7
				c0.6,0.1,1.3,0.1,2.1,0.1c12.3,0,40-13.6,57.1-65.1c7-21.1,18.5-61.1,34.1-118.8l0.5-1.8l-47,7c-0.6,0.1-1.2,0.1-1.7,0.1
				c-5.7,0-10.6-4.3-11.5-9.9c-0.5-3.1,0.3-6.1,2.1-8.6c1.8-2.5,4.5-4.1,7.6-4.6l57-8.5l0.2-0.8c8-29.9,14.1-53.3,15.2-57.7l0-0.2
				c1.3-5.1,5.9-8.7,11.2-8.7c1,0,2,0.1,2.9,0.4c6.2,1.6,9.9,8,8.3,14.2c-0.5,2.1-5.5,21.2-12.4,47.2l-0.5,1.8l124.8-18.7
				c0.6-0.1,1.2-0.1,1.7-0.1c5.7,0,10.6,4.3,11.5,9.9c0.9,6.3-3.4,12.3-9.8,13.2l-134.8,20.2l-0.2,0.8
				c-11.8,43.8-27.8,102.1-37.4,131c-1.7,5-3.5,9.9-5.6,15.1l0,0.1l0,0.1c-1,4.3-3.2,26.9,9.8,30.7c1.4,0.4,2.9,0.6,4.3,0.6
				c9.6,0,18.1-8.9,28.9-20.1c1.7-1.7,3.4-3.5,5.1-5.3l0.5-0.5l-0.2-0.7c-5.9-22.8-5.9-57.4,12.1-86.1c9.4-15.1,18.9-22.8,28.1-22.8
				c2.9,0,5.7,0.8,8.5,2.3c8.8,4.8,13,16.4,12.4,33.6c-0.5,14-4.4,29.5-10.6,42.5c-5.6,11.7-13.7,24-23.3,35.7l-0.5,0.6l0.4,0.7
				c0.1,0.1,7.2,9.9,9,9.9h0.3c23.9,0,43.1-29,55.1-53.4c0.1-0.2,0.2-0.3,0.3-0.5c0.1-0.1,0.2-0.3,0.3-0.4l0.1-0.2l0-0.2
				c1-6.2,2.4-12.9,4-20.1c7.4-31.3,26.7-65.1,51.8-65.1c0.4,0,0.7,0,1.1,0c6.4,0.2,12.5,2.3,18,6.1l1.4,1l0.4-1.7
				c14.9-57.7,33.5-127.7,37-141.1l0.2-0.6c1.4-5.1,6-8.6,11.2-8.6c1,0,2,0.1,3,0.4c6.2,1.7,9.9,8,8.2,14.2
				c-0.4,1.6-43.1,161.6-54.1,209.6c-1.2,5.3-2.4,10.2-3.7,14.9l-0.1,0.4l0.1,0.3c0.2,0.5,0.3,1,0.5,1.5c0.3,0.8,0.5,1.5,0.7,2.1
				l0.7,1.8c3.9,9.9,8,20.2,15.7,20.1c6.5,0,13.8-11.4,22.4-34.7c1.7-4.6,6.1-7.6,10.9-7.6c1.4,0,2.7,0.2,4,0.7
				c6,2.2,9.1,8.9,6.9,14.9c-3.6,9.9-16.9,42.6-37.3,49c-2.2,0.7-4.5,1-6.8,1c-6.7,0-16.9-3.1-27.3-18l-1.1-1.6l-0.9,1.8
				c-8.9,16.6-20.7,24-38.4,24.2l-0.3,0c-9.2,0-16.9-3.5-22.3-10.2c-1.9-2.4-3.6-5.3-4.8-8.5l-0.8-2l-1.3,1.7
				c-16.6,21.3-35.1,32.2-55,32.2l-0.5,0c-9.4-0.1-18.1-5.3-25-15.1l-0.8-1.1l-1,0.9c-17.5,16.1-34.3,24.9-47.2,24.9
				c-0.3,0-0.7,0-1,0c-11.9-0.4-20.8-7.1-26.3-19.9l-0.8-1.9l-1.3,1.6c-14.2,18.2-31.5,28.5-52.8,31.6c-1.9,0.3-3.9,0.4-5.8,0.4
				c-10,0-18.9-3.8-25.7-11.1c-0.4-0.5-0.8-0.9-1.2-1.4l-1.3-1.6l-0.9,1.5c-9.5,15.6-22.2,23.6-37.7,23.6c-9.8,0-18.2-3.9-24.3-11.3
				c-1.3-1.5-2.5-3.3-3.5-5.1l-0.9-1.5l-1.1,1.3c-10,11.5-20.6,18.9-31.6,21.9c-2.1,0.6-4.2,0.9-6.3,0.9c-9.3,0-18.9-5.4-28.7-16.2
				l-1.3-1.4l-0.8,1.7c-9.3,20.7-21.5,29.5-41.1,29.7l-0.3,0c-9.2,0-16.9-3.5-22.3-10.2c-0.5-0.6-0.9-1.2-1.4-2l-1-1.5l-1,1.5
				c-7.1,10.3-14.6,16.7-22.2,19.1c-2.2,0.7-4.5,1-6.8,1c-9.3,0-18.4-5.8-26.3-16.7l-1.3-1.7l-0.9,2c-9.3,21.4-21.7,30.5-41.5,30.7
				L1164.6,578.3z M1191.8,451.4c-11.2,0-22,17.6-28.9,47.2c-9.8,41.5-4.3,52.6-2.4,55c0.8,1,1.7,1.5,4.2,1.5
				c10.3-0.1,19.1-0.2,31.3-52.8c2.2-9.6,5.4-22.8,9.6-39.4l0.1-0.5l-0.2-0.4c-0.2-0.3-0.4-0.8-0.6-1.4c-1.1-3-3.1-8.7-12.5-9.2
				C1192.1,451.4,1192,451.4,1191.8,451.4z M1316.7,429.2c-11.3,0-21.9,17.2-28.9,47.2c-6.4,27.4-7.4,45.8-2.8,53.1
				c1.1,1.8,2.6,2.9,4.3,3.3c1.3,0.3,2.4,0.4,3.5,0.4c13.9,0,22-26.9,28-53.2c2.2-9.6,5.4-22.8,9.6-39.4l0.1-0.5l-0.5-1
				c-1.5-2.9-5.1-9.6-12.8-10C1317.1,429.2,1316.9,429.2,1316.7,429.2z M1770,363.9c-11.2,0-21.6,17.2-28.7,47.2
				c-10.8,45.9-3.7,55.1,1.4,56.4c0.8,0.2,1.7,0.3,2.5,0.3c7.7,0,19-9.2,29.2-53.1c2-8.9,5.3-22.1,9.6-39.3l0.1-0.2l0-0.2
				c-0.3-2.4-2.2-10.4-13.4-11.1C1770.5,363.9,1770.3,363.9,1770,363.9z M1643.9,405.6c-7.1,19.7-2.5,37.7-2.5,37.7
				s10.3-8.2,19-33.6c3-8.7,4.2-24.3-0.9-25.5S1646.4,398.6,1643.9,405.6z"/>
		</g>
		<g>
			<path class="st0" d="M1038.9,286.7c-5.2-4-11.7-8.5-19.4-13.3c16.2-34.2,33-64.3,51.5-91.9c45.5-68.1,89.7-110.8,139.1-134.3
				c18.9-9,38.8-13.6,59.1-13.6c36.4,0,69.6,14.6,93.4,41.2c15.4,17.2,27.7,44,34.7,75.3c6.8,30.7,8.1,63.8,3.6,93.1
				c-0.9,5.7-2,11.4-3.3,16.7c-1.3,5.2-5.9,8.9-11.3,8.9c-0.9,0-1.8-0.1-2.7-0.3c-3-0.7-5.6-2.6-7.2-5.2c-1.6-2.6-2.1-5.8-1.4-8.8
				c1.1-4.7,2.1-9.7,2.9-14.7c8.4-55-5.7-119.2-32.7-149.4c-19.3-21.6-46.4-33.5-76.2-33.5c-16.6,0-33.6,3.9-49.1,11.3
				c-44.8,21.3-87.3,62.6-129.8,126.2C1071.8,222,1055,252.2,1038.9,286.7z"/>
		</g>
		<g>
			<path class="st0" d="M908.9,689.5c-0.5,0-1,0-1.5-0.1c-6.3-0.8-10.8-6.7-10-13.1c13.4-100.5,48.9-211.8,68.8-269.1
				c8.3-23.9,19.6-55.5,32.8-87.6l0.4-0.9l-0.8-0.6c-19.4-12.6-38.5-19-56.8-19c-11.4,0-22.2,2.5-32.2,7.5
				c-34.7,17.3-53.3,60.9-47.4,111.1c3.9,33.3,13.7,56.4,29.1,68.5c5.6,4.4,12,7.5,19.8,9.6l-6.6,22.4c-10.5-2.9-19.5-7.3-27.5-13.7
				c-20.7-16.4-33.1-43.9-37.8-84.1c-7-60,16.6-112.9,60.1-134.6c13.4-6.7,27.8-10.1,42.7-10.1c32.7,0,66.9,16.1,98.8,46.4
				c47.4,45.1,70.1,107.2,65.6,179.5c-3.3,54-20.4,94.3-21.1,96c-1.8,4.3-6,7-10.7,7c-1.6,0-3.1-0.3-4.6-0.9
				c-2.9-1.2-5.1-3.5-6.2-6.4c-1.2-2.9-1.1-6,0.1-8.9c0.7-1.6,16.2-38.9,19.2-88.1l0.1-1.7l-1.6,0.4c-19.6,5.2-58.3,14.5-97.9,18.5
				c-0.3,0-0.7,0.1-1,0.1l6.8-24.1c43-5.2,85.1-16.6,93.1-18.8l0.9-0.3l0-1c-2.1-54.2-21.9-99.5-58.8-134.6c-1.6-1.5-3.2-3-4.9-4.5
				l-1.3-1.2l-0.7,1.6c-11.9,29.3-22.1,58-29.7,79.8c-33.5,96.2-58.2,192.6-67.7,264.6C919.7,685.2,914.7,689.5,908.9,689.5z"/>
		</g>
	</g>
</g>
</svg>
